# xmcd
#
# Track frame offsets:
#	150
#	19801
#	37431
#	55657
#	70931
#	90816
#	106117
#	124193
#	146117
#	162330
#	180256
#	199019
#	212445
#	231646
#
# Disc length: 3318 seconds
# Revision: 0
# Processed by: cddbd v1.5.2PL0 Copyright (c) Steve Scherf et al.
# Submitted via: dBpowerAMP V12.0
#
DISCID=c00cf40e
DTITLE=Jean-Claude Stelandre - Rebelle
DYEAR=2009
DGENRE=Chanson
TTITLE0=Ali meurt de faim
TTITLE1=Les racailles
TTITLE2=Retour
TTITLE3=Le deserteur
TTITLE4=Bien sage
TTITLE5=La croix, l'etoile et le croissant
TTITLE6=Ce siecle
TTITLE7=Liberte
TTITLE8=Fric
TTITLE9=Les petits chefs
TTITLE10=La priere
TTITLE11=Survivre
TTITLE12=Blanc
TTITLE13=On m'a fait croire
EXTD=
EXTT0=
EXTT1=
EXTT2=
EXTT3=
EXTT4=
EXTT5=
EXTT6=
EXTT7=
EXTT8=
EXTT9=
EXTT10=
EXTT11=
EXTT12=
EXTT13=
PLAYORDER=
